# File created by Blade
# Date/Time:  Fri Jan 16 19:18:48 2015
#---------------------------------------------------------
:version 1.10
:name HOM
:units
  mass 1.0
  length 1.000000
  angle deg
:documentation
     Acclaim Skeleton File
:root
   axis xyz
   order TX TY TZ RX RY RZ
   position 0.000000 0.000000 0.000000
   orientation 0 0 0
:bonedata
   begin
      id 1
      name Spine_dum
      direction 0.000000 1.000000 0.000000
      length 7.067664
      axis 0.0 0.0 0.0 xyz
   end
   begin
      id 2
      name LeftUpLeg_dum
      direction 1.000000 0.000000 0.000000
      length 4.013002
      axis 0.0 0.0 0.0 xyz
   end
   begin
      id 3
      name RightUpLeg_dum
      direction -1.000000 0.000000 0.000000
      length 4.013002
      axis 0.0 0.0 0.0 xyz
   end
   begin
      id 4
      name Spine
      direction 0.000000 1.000000 0.000000
      length 0.000000
      axis 0.0 0.0 0.0 xyz
      dof rx ry rz
   end
   begin
      id 5
      name Spine_dum1
      direction 0.000000 1.000000 0.000000
      length 15.039886
      axis 0.0 0.0 0.0 xyz
   end
   begin
      id 6
      name Spine_dum2
      direction 0.000000 1.000000 0.000000
      length 10.530368
      axis 0.0 0.0 0.0 xyz
   end
   begin
      id 7
      name Spine_dum3
      direction 0.000000 1.000000 0.000000
      length 10.530368
      axis 0.0 0.0 0.0 xyz
   end
   begin
      id 8
      name Head
      direction 0.000000 1.000000 0.000000
      length 4.527550
      axis 0.0 0.0 0.0 xyz
      dof rx ry rz
   end
   begin
      id 9
      name LeftShoulder
      direction 1.000000 0.000000 0.000000
      length 7.028855
      axis 0.0 0.0 -90.0 xyz
      dof rx ry rz
   end
   begin
      id 10
      name LeftArm
      direction 1.000000 0.000000 0.000000
      length 10.797705
      axis 0.0 0.0 -90.0 xyz
      dof rx ry rz
   end
   begin
      id 11
      name LeftForeArm
      direction 1.000000 0.000000 0.000000
      length 7.907442
      axis 0.0 0.0 -90.0 xyz
      dof ry rz rx
   end
   begin
      id 12
      name LeftHand
      direction 0.000000 0.000000 0.000000
      length 0.000000
      axis 0.0 0.0 -90.0 xyz
      dof rx ry rz
   end
   begin
      id 13
      name LeftHand_dum1
      direction 0.000000 0.000000 0.000000
      length 0.000000
      axis 0.0 0.0 -90.0 xyz
   end
   begin
      id 14
      name LeftHand_dum2
      direction 1.000000 0.000000 0.000000
      length 3.937000
      axis 0.0 0.0 -90.0 xyz
   end
   begin
      id 15
      name LeftHandThumb1
      direction 0.000000 0.000000 1.000000
      length 3.937000
      axis 0.0 0.0 -90.0 xyz
      dof rx rz ry
   end
   begin
      id 16
      name RightShoulder
      direction -1.000000 0.000000 0.000000
      length 7.028855
      axis 0.0 0.0 90.0 xyz
      dof rx ry rz
   end
   begin
      id 17
      name RightArm
      direction -1.000000 0.000000 0.000000
      length 10.797705
      axis 0.0 0.0 90.0 xyz
      dof rx ry rz
   end
   begin
      id 18
      name RightForeArm
      direction -1.000000 0.000000 0.000000
      length 7.907442
      axis 0.0 0.0 90.0 xyz
      dof ry rz rx
   end
   begin
      id 19
      name RightHand
      direction 0.000000 0.000000 0.000000
      length 0.000000
      axis 0.0 0.0 90.0 xyz
      dof rx ry rz
   end
   begin
      id 20
      name RightHand_dum1
      direction 0.000000 0.000000 0.000000
      length 0.000000
      axis 0.0 0.0 90.0 xyz
   end
   begin
      id 21
      name RightHand_dum2
      direction -1.000000 0.000000 0.000000
      length 3.937000
      axis 0.0 0.0 90.0 xyz
   end
   begin
      id 22
      name RightHandThumb1
      direction 0.000000 0.000000 1.000000
      length 3.937000
      axis 0.0 0.0 90.0 xyz
      dof rx rz ry
   end
   begin
      id 23
      name LeftUpLeg
      direction 0.000000 -1.000000 0.000000
      length 16.899758
      axis 0.0 0.0 0.0 xyz
      dof rx ry rz
   end
   begin
      id 24
      name LeftLeg
      direction 0.000000 -1.000000 0.000000
      length 17.389183
      axis 0.0 0.0 0.0 xyz
      dof rx ry rz
   end
   begin
      id 25
      name LeftFoot
      direction 0.000000 -0.258819 0.965926
      length 4.924528
      axis 15.0 0.0 0.0 xyz
      dof rx ry rz
   end
   begin
      id 26
      name LeftToeBase
      direction 0.000000 0.000000 1.000000
      length 2.952750
      axis 0.0 0.0 0.0 xyz
      dof rx ry rz
   end
   begin
      id 27
      name RightUpLeg
      direction 0.000000 -1.000000 0.000000
      length 16.899758
      axis 0.0 0.0 0.0 xyz
      dof rx ry rz
   end
   begin
      id 28
      name RightLeg
      direction 0.000000 -1.000000 0.000000
      length 17.389183
      axis 0.0 0.0 0.0 xyz
      dof rx ry rz
   end
   begin
      id 29
      name RightFoot
      direction 0.000000 -0.258819 0.965926
      length 4.924528
      axis 15.0 0.0 0.0 xyz
      dof rx ry rz
   end
   begin
      id 30
      name RightToeBase
      direction 0.000000 0.000000 1.000000
      length 2.952750
      axis 0.0 0.0 0.0 xyz
      dof rx ry rz
   end
:hierarchy
   begin
      root Spine_dum LeftUpLeg_dum RightUpLeg_dum
      Spine_dum Spine
      LeftUpLeg_dum LeftUpLeg
      RightUpLeg_dum RightUpLeg
      Spine Spine_dum1 Spine_dum2 Spine_dum3
      Spine_dum1 Head
      Spine_dum2 LeftShoulder
      Spine_dum3 RightShoulder
      LeftShoulder LeftArm
      LeftArm LeftForeArm
      LeftForeArm LeftHand
      LeftHand LeftHand_dum1 LeftHand_dum2
      LeftHand_dum1 LeftHandThumb1
      RightShoulder RightArm
      RightArm RightForeArm
      RightForeArm RightHand
      RightHand RightHand_dum1 RightHand_dum2
      RightHand_dum1 RightHandThumb1
      LeftUpLeg LeftLeg
      LeftLeg LeftFoot
      LeftFoot LeftToeBase
      RightUpLeg RightLeg
      RightLeg RightFoot
      RightFoot RightToeBase
   end

# File created by Blade
# Date/Time:  Fri Jan 16 19:18:57 2015
# Frame Rate: 120.000 fps
#------------------------------------------------------
:FULLY-SPECIFIED
:DEGREES
35
root 19.876260 35.517812 -22.467954 -171.100311 1.407153 -179.259192
Spine -20.172567 0.854583 -0.018468
Head 8.937406 0.166625 1.705158
LeftShoulder -12.544672 -28.786762 18.125302
LeftArm 4.324881 2.243948 -7.792909
LeftForeArm 8.736084 -0.000000 -2.520923
LeftHand -6.262993 -0.000000 -6.973384
LeftHandThumb1 -26.253704 0.000000 33.147579
RightShoulder -12.150727 -9.139943 -9.178569
RightArm 7.474718 39.395441 14.939787
RightForeArm -32.782858 -0.000000 3.836124
RightHand -6.377232 -0.000000 9.262031
RightHandThumb1 -24.326973 -0.000000 -32.862282
LeftUpLeg 0.644581 10.240027 -0.225252
LeftLeg -6.546966 -0.000000 0.000000
LeftFoot -21.080059 27.053779 -13.788742
LeftToeBase 25.950388 -0.000000 -0.000000
RightUpLeg -0.883241 -4.004741 -0.076202
RightLeg -2.733593 -0.000000 0.000000
RightFoot -21.801454 -24.953125 14.617094
RightToeBase 24.333016 -0.000000 -0.000000
36
root 19.877258 35.518730 -22.463263 -171.097639 1.385110 -179.257877
Spine -20.187519 0.855683 -0.014766
Head 8.954669 0.132667 1.705058
LeftShoulder -12.523649 -28.820845 18.120597
LeftArm 4.316429 2.258086 -7.800274
LeftForeArm 8.741628 -0.000000 -2.502846
LeftHand -6.219128 -0.000000 -7.079187
LeftHandThumb1 -26.253704 0.000000 33.147579
RightShoulder -12.158331 -9.144002 -9.179009
RightArm 7.499075 39.425770 14.945055
RightForeArm -32.796388 -0.000000 3.822310
RightHand -6.363543 0.000000 9.260500
RightHandThumb1 -24.326973 -0.000000 -32.862282
LeftUpLeg 0.620254 10.233170 -0.221904
LeftLeg -6.523260 -0.000000 0.000000
LeftFoot -21.089119 27.032324 -13.782821
LeftToeBase 26.002600 -0.000000 -0.000000
RightUpLeg -0.899744 -4.016673 -0.072647
RightLeg -2.712591 -0.000000 0.000000
RightFoot -21.801960 -24.931676 14.677002
RightToeBase 24.190227 -0.000000 -0.000000
37
root 19.878095 35.519190 -22.460887 -171.109592 1.358088 -179.259507
Spine -20.186916 0.838002 -0.003732
Head 8.968219 0.153374 1.710188
LeftShoulder -12.521156 -28.847447 18.120300
LeftArm 4.313555 2.277612 -7.807221
LeftForeArm 8.753409 -0.000000 -2.499841
LeftHand -6.226956 -0.000000 -7.081239
LeftHandThumb1 -26.253704 0.000000 33.147579
RightShoulder -12.140544 -9.118411 -9.197855
RightArm 7.485451 39.398932 14.929315
RightForeArm -32.739986 -0.000000 3.825943
RightHand -6.369155 0.000000 9.295649
RightHandThumb1 -24.326973 -0.000000 -32.862282
LeftUpLeg 0.620398 10.215958 -0.217053
LeftLeg -6.515749 -0.000000 0.000000
LeftFoot -21.075688 27.031564 -13.777558
LeftToeBase 25.944365 -0.000000 -0.000000
RightUpLeg -0.892416 -4.033000 -0.070069
RightLeg -2.705943 -0.000000 0.000000
RightFoot -21.823606 -24.924036 14.731273
RightToeBase 24.167727 -0.000000 -0.000000
38
root 19.878613 35.520005 -22.457481 -171.112999 1.342029 -179.264485
Spine -20.201032 0.836730 -0.007379
Head 8.995686 0.147622 1.709319
LeftShoulder -12.499851 -28.863902 18.122021
LeftArm 4.297340 2.304070 -7.821382
LeftForeArm 8.742693 -0.000000 -2.487012
LeftHand -6.229933 0.000000 -7.056702
LeftHandThumb1 -26.253704 0.000000 33.147579
RightShoulder -12.053582 -9.042162 -9.269451
RightArm 7.309479 39.338046 14.898315
RightForeArm -32.740521 -0.000000 3.900177
RightHand -6.381958 -0.000000 9.304861
RightHandThumb1 -24.326973 -0.000000 -32.862282
LeftUpLeg 0.611985 10.202759 -0.220437
LeftLeg -6.507365 -0.000000 0.000000
LeftFoot -21.083533 27.021991 -13.792920
LeftToeBase 26.013336 -0.000000 -0.000000
RightUpLeg -0.902727 -4.037925 -0.072162
RightLeg -2.685873 -0.000000 0.000000
RightFoot -21.800202 -24.898031 14.754274
RightToeBase 24.046493 -0.000000 -0.000000
39
root 19.879376 35.520504 -22.454473 -171.121781 1.319538 -179.260608
Spine -20.205084 0.822427 0.009975
Head 9.017894 0.175097 1.704160
LeftShoulder -12.505859 -28.842609 18.115903
LeftArm 4.315593 2.270907 -7.836599
LeftForeArm 8.746966 0.000000 -2.487947
LeftHand -6.254388 -0.000000 -7.064290
LeftHandThumb1 -26.253704 0.000000 33.147579
RightShoulder -12.025296 -8.980971 -9.272060
RightArm 7.274782 39.270781 14.831686
RightForeArm -32.707593 -0.000000 3.880013
RightHand -6.357473 -0.000000 9.296256
RightHandThumb1 -24.326973 -0.000000 -32.862282
LeftUpLeg 0.604457 10.201364 -0.211815
LeftLeg -6.492645 -0.000000 0.000000
LeftFoot -21.079943 27.011840 -13.784644
LeftToeBase 26.014319 -0.000000 -0.000000
RightUpLeg -0.904597 -4.033307 -0.062803
RightLeg -2.668594 -0.000000 0.000000
RightFoot -21.830714 -24.884925 14.890125
RightToeBase 23.871897 -0.000000 -0.000000
40
root 19.879427 35.520788 -22.452333 -171.139748 1.298240 -179.267427
Spine -20.196552 0.808198 0.014271
Head 9.028426 0.182900 1.689932
LeftShoulder -12.493344 -28.861925 18.097234
LeftArm 4.312417 2.284170 -7.824981
LeftForeArm 8.747460 -0.000000 -2.494547
LeftHand -6.228385 0.000000 -7.059721
LeftHandThumb1 -26.253704 0.000000 33.147579
RightShoulder -12.078065 -9.094946 -9.250562
RightArm 7.453780 39.401846 14.924698
RightForeArm -32.728088 0.000000 3.839851
RightHand -6.361274 -0.000000 9.275093
RightHandThumb1 -24.326973 -0.000000 -32.862282
LeftUpLeg 0.610222 10.191755 -0.213903
LeftLeg -6.479965 -0.000000 0.000000
LeftFoot -21.086736 26.999128 -13.796517
LeftToeBase 25.975979 -0.000000 -0.000000
RightUpLeg -0.896629 -4.032792 -0.069879
RightLeg -2.645800 -0.000000 0.000000
RightFoot -21.845910 -24.946713 14.770695
RightToeBase 24.091352 -0.000000 -0.000000
41
root 19.879724 35.521282 -22.450007 -171.143485 1.280300 -179.270709
Spine -20.205192 0.804475 0.015907
Head 9.031662 0.183046 1.689040
LeftShoulder -12.477032 -28.883206 18.097789
LeftArm 4.301384 2.291207 -7.836602
LeftForeArm 8.725538 -0.000000 -2.497983
LeftHand -6.241284 0.000000 -7.062403
LeftHandThumb1 -26.253704 0.000000 33.147579
RightShoulder -12.042276 -9.040314 -9.262525
RightArm 7.382453 39.339190 14.861439
RightForeArm -32.678025 -0.000000 3.849494
RightHand -6.348785 -0.000000 9.291518
RightHandThumb1 -24.326973 -0.000000 -32.862282
LeftUpLeg 0.602669 10.182776 -0.214730
LeftLeg -6.471761 -0.000000 0.000000
LeftFoot -21.053270 26.999029 -13.773185
LeftToeBase 25.895241 -0.000000 -0.000000
RightUpLeg -0.907396 -4.038553 -0.071103
RightLeg -2.624973 -0.000000 0.000000
RightFoot -21.869836 -24.937520 14.816603
RightToeBase 24.081630 -0.000000 -0.000000
